<svg width="17" height="15" viewBox="0 0 17 15" fill="none" xmlns="http://www.w3.org/2000/svg">
<rect width="17" height="15" fill="#F2F2F2"/>
<g id="Mobile - Preview - Dark">
<rect width="375" height="1551" transform="translate(-343 -69)" fill="#151619"/>
<g id="Group 5">
<g id="Group 4" clip-path="url(#clip0_0_1)">
<rect id="Rectangle" x="-343" y="-13" width="375" height="42" fill="#1D1F22"/>
<g id="Eye Off 2">
<g id="Eye Off">
<path id="Combined Shape" fill-rule="evenodd" clip-rule="evenodd" d="M2.72864 0.604545C2.52783 0.403732 2.23514 0.325305 1.96082 0.398808C1.68651 0.472311 1.47224 0.686576 1.39874 0.960891C1.32524 1.23521 1.40366 1.5279 1.60447 1.72871L6.06156 6.18579C5.48253 7.26293 5.67812 8.59229 6.54284 9.45701C7.40757 10.3217 8.73692 10.5173 9.81406 9.93829L14.2711 14.3954C14.4198 14.5453 14.6221 14.6296 14.8332 14.6296C15.0443 14.6296 15.2467 14.5453 15.3953 14.3954C15.5452 14.2467 15.6295 14.0444 15.6295 13.8333C15.6295 13.6222 15.5452 13.4199 15.3953 13.2712L2.72864 0.604545ZM8.49989 8.68746C7.84405 8.68746 7.31239 8.1558 7.31239 7.49996V7.44454L8.54739 8.67954L8.49989 8.68746ZM16.3136 7.10413C15.807 6.22538 13.0124 1.81579 8.28614 1.95829C7.40933 1.9843 6.54387 2.16383 5.72906 2.48871L6.97989 3.73954C7.41977 3.62383 7.87116 3.55745 8.32572 3.54163C11.722 3.45454 13.9545 6.38371 14.6591 7.49996C14.1509 8.29344 13.5414 9.01732 12.8461 9.65329L14.0416 10.7695C14.9463 9.92984 15.7225 8.96155 16.3453 7.89579C16.4771 7.64523 16.465 7.34337 16.3136 7.10413ZM8.67406 11.4583C5.26989 11.5375 3.03739 8.61621 2.34072 7.49996C2.83668 6.70884 3.43272 5.98508 4.11406 5.34663L2.95822 4.23038C2.06469 5.07229 1.29921 6.04047 0.686141 7.10413C0.544724 7.34907 0.544724 7.65085 0.686141 7.89579C1.18489 8.75871 3.85281 13.0416 8.51572 13.0416H8.71364C9.59045 13.0156 10.4559 12.8361 11.2707 12.5112L10.0199 11.2604C9.58002 11.3761 9.12862 11.4425 8.67406 11.4583Z" fill="#C1C4CB"/>
</g>
</g>
</g>
</g>
</g>
<defs>
<clipPath id="clip0_0_1">
<rect width="375" height="42" fill="white" transform="translate(-343 -13)"/>
</clipPath>
</defs>
</svg>
